<svg width="122" height="29" viewBox="0 0 122 29" fill="none" xmlns="http://www.w3.org/2000/svg">
<path d="M5.92616 13.5293C5.92619 13.3701 5.95766 13.2125 6.01877 13.0656C6.07987 12.9186 6.1694 12.7851 6.28223 12.6728C6.39505 12.5606 6.52894 12.4717 6.67621 12.4113C6.82348 12.3509 6.98123 12.3202 7.1404 12.3209L9.15347 12.3275C9.47445 12.3275 9.78228 12.455 10.0092 12.682C10.2362 12.909 10.3637 13.2168 10.3637 13.5378V21.1502C10.5904 21.083 10.8806 21.0114 11.1999 20.9362C11.4211 20.8841 11.6183 20.7589 11.7594 20.5808C11.9005 20.4026 11.9773 20.1821 11.9774 19.9548V10.5127C11.9774 10.1917 12.1049 9.88389 12.3318 9.65689C12.5588 9.42989 12.8666 9.30233 13.1876 9.30226H15.2068C15.5278 9.30233 15.8356 9.42989 16.0626 9.65689C16.2895 9.88389 16.417 10.1917 16.417 10.5127V19.2765C16.417 19.2765 16.9222 19.0721 17.4139 18.8644C17.5967 18.7871 17.7526 18.6577 17.8623 18.4924C17.972 18.327 18.0305 18.1331 18.0307 17.9347V7.48702C18.0307 7.16608 18.1582 6.85829 18.3851 6.63133C18.612 6.40437 18.9198 6.27684 19.2407 6.27678H21.2578C21.5786 6.27709 21.8861 6.40473 22.1128 6.63166C22.3395 6.8586 22.4668 7.16625 22.4668 7.48702V16.0903C24.2156 14.823 25.9878 13.2986 27.3943 11.4657C27.5983 11.1997 27.7334 10.8872 27.7873 10.5563C27.8413 10.2254 27.8125 9.88626 27.7035 9.56917C27.0524 7.69616 26.0176 5.97967 24.6651 4.52956C23.3126 3.07945 21.6723 1.92764 19.8491 1.14785C18.026 0.368051 16.0601 -0.0225619 14.0773 0.00100641C12.0945 0.0245747 10.1384 0.461804 8.33432 1.28471C6.5302 2.10763 4.91773 3.2981 3.6001 4.77995C2.28247 6.2618 1.28869 8.00239 0.682357 9.89036C0.0760257 11.7783 -0.129506 13.7721 0.0789137 15.744C0.287333 17.716 0.905115 19.6227 1.89273 21.3422C2.06479 21.6388 2.31794 21.8802 2.62242 22.0379C2.92691 22.1957 3.27008 22.2632 3.61164 22.2327C3.9932 22.1991 4.46828 22.1516 5.03311 22.0853C5.27893 22.0574 5.50588 21.94 5.67074 21.7555C5.8356 21.571 5.92684 21.3323 5.9271 21.0849V13.5293" fill="white"/>
<path d="M5.88281 25.7379C8.00895 27.2846 10.5215 28.2131 13.1426 28.4204C15.7636 28.6278 18.3909 28.1061 20.7339 26.9129C23.0768 25.7198 25.044 23.9018 26.4178 21.66C27.7916 19.4182 28.5184 16.8401 28.5179 14.2109C28.5179 13.8819 28.5027 13.5582 28.4808 13.2354C23.2736 21.0017 13.6588 24.6325 5.88281 25.7379Z" fill="#F0B90B"/>
<path opacity="0.8" d="M36.4326 23.7823H34.4378L34.0854 24.7832H33.0352L34.8678 19.8633H36.0026L37.8282 24.7832H36.778L36.4326 23.7823ZM36.1647 23.0281L35.4317 20.9276L34.6986 23.0281H36.1647ZM42.9384 20.8289C43.251 20.8245 43.5586 20.9075 43.8265 21.0686C44.0955 21.2348 44.3099 21.4762 44.4433 21.7629C44.598 22.0971 44.674 22.4625 44.6653 22.8307C44.674 23.199 44.598 23.5643 44.4433 23.8986C44.3099 24.1853 44.0955 24.4266 43.8265 24.5929C43.5586 24.754 43.251 24.837 42.9384 24.8325C42.6401 24.8409 42.3462 24.7582 42.0961 24.5952C41.8679 24.4434 41.6938 24.2228 41.5992 23.9655V26.644H40.6053V20.8783H41.5992V21.6889C41.6931 21.4318 41.8673 21.2118 42.0961 21.0615C42.3472 20.9012 42.6407 20.8201 42.9384 20.8289ZM42.6283 21.6959C42.4898 21.6916 42.352 21.7165 42.2238 21.7692C42.0957 21.8218 41.9801 21.9009 41.8847 22.0013C41.6811 22.2281 41.5759 22.5264 41.5921 22.8307C41.5845 22.9803 41.6064 23.1299 41.6566 23.271C41.7068 23.4121 41.7843 23.5419 41.8847 23.6531C41.9801 23.7535 42.0957 23.8326 42.2238 23.8852C42.352 23.9379 42.4898 23.9628 42.6283 23.9585C42.7669 23.9644 42.9053 23.9408 43.0341 23.8892C43.1629 23.8375 43.2793 23.759 43.3754 23.6589C43.5739 23.4302 43.675 23.133 43.6574 22.8307C43.6746 22.5274 43.5735 22.2293 43.3754 21.999C43.2798 21.898 43.1637 21.8186 43.0348 21.7663C42.9059 21.714 42.7673 21.69 42.6283 21.6959ZM46.7165 21.6254C46.8556 21.383 47.0546 21.1804 47.2944 21.0369C47.5374 20.8926 47.8155 20.8182 48.098 20.8219V21.8862H47.809C47.0806 21.8862 46.7165 22.2245 46.7165 22.9012V24.7832H45.7226V20.8783H46.7165V21.6254ZM50.8046 20.8289C51.161 20.8232 51.5133 20.9055 51.8302 21.0686C52.1308 21.2259 52.3793 21.4671 52.5456 21.7629C52.7254 22.0895 52.8154 22.458 52.8064 22.8307C52.8157 23.2024 52.7257 23.5698 52.5456 23.8951C52.378 24.1898 52.1298 24.4306 51.8302 24.5893C51.514 24.7546 51.1614 24.8382 50.8046 24.8325C50.4479 24.8382 50.0953 24.7546 49.7791 24.5893C49.4795 24.4306 49.2313 24.1898 49.0636 23.8951C48.8836 23.5698 48.7936 23.2024 48.8028 22.8307C48.7939 22.458 48.8839 22.0895 49.0636 21.7629C49.2299 21.4671 49.4785 21.2259 49.7791 21.0686C50.096 20.9055 50.4483 20.8232 50.8046 20.8289ZM50.8046 21.6889C50.6733 21.6864 50.543 21.7112 50.4217 21.7615C50.3004 21.8118 50.1908 21.8867 50.0998 21.9814C49.9976 22.0966 49.9194 22.2311 49.8698 22.3769C49.8201 22.5228 49.8001 22.677 49.8108 22.8307C49.8002 22.9842 49.8204 23.1383 49.87 23.2839C49.9196 23.4295 49.9977 23.5638 50.0998 23.6789C50.1908 23.7736 50.3004 23.8484 50.4217 23.8988C50.543 23.9491 50.6733 23.9738 50.8046 23.9714C50.9359 23.9738 51.0663 23.9491 51.1876 23.8988C51.3089 23.8484 51.4185 23.7736 51.5095 23.6789C51.6116 23.5638 51.6897 23.4295 51.7393 23.2839C51.7889 23.1383 51.809 22.9842 51.7985 22.8307C51.8092 22.677 51.7892 22.5228 51.7395 22.3769C51.6899 22.2311 51.6117 22.0966 51.5095 21.9814C51.4185 21.8867 51.3089 21.8118 51.1876 21.7615C51.0663 21.7112 50.9359 21.6864 50.8046 21.6889ZM55.3933 20.8289C55.691 20.8201 55.9845 20.9012 56.2356 21.0615C56.4651 21.2127 56.6414 21.4322 56.7396 21.6889V19.5672H57.7264V24.7832H56.7396V23.9655C56.6403 24.2226 56.4638 24.4426 56.2344 24.5952C55.9846 24.7579 55.6912 24.8407 55.3933 24.8325C55.0807 24.837 54.7731 24.754 54.5052 24.5929C54.2362 24.4266 54.0218 24.1853 53.8884 23.8986C53.7337 23.5643 53.6577 23.199 53.6664 22.8307C53.6577 22.4625 53.7337 22.0971 53.8884 21.7629C54.0218 21.4762 54.2362 21.2348 54.5052 21.0686C54.7731 20.9075 55.0807 20.8245 55.3933 20.8289ZM55.7034 21.6959C55.5644 21.69 55.4258 21.714 55.2969 21.7663C55.168 21.8186 55.0519 21.898 54.9563 21.999C54.7582 22.2293 54.6571 22.5274 54.6743 22.8307C54.6566 23.133 54.7578 23.4302 54.9563 23.6589C55.0524 23.759 55.1688 23.8375 55.2976 23.8892C55.4264 23.9408 55.5647 23.9644 55.7034 23.9585C55.8418 23.9625 55.9794 23.9373 56.1074 23.8845C56.2353 23.8316 56.3507 23.7524 56.4459 23.6519C56.5462 23.5407 56.6237 23.4109 56.6739 23.2698C56.7241 23.1287 56.746 22.9791 56.7384 22.8295C56.754 22.5261 56.6488 22.2287 56.4459 22.0025C56.3507 21.902 56.2353 21.8228 56.1074 21.7699C55.9794 21.7171 55.8418 21.6919 55.7034 21.6959ZM62.7168 20.8783V24.7832H61.7229V23.9937C61.6251 24.25 61.4455 24.4668 61.2119 24.6105C60.9646 24.7614 60.6792 24.8385 60.3895 24.8325C60.1883 24.8415 59.9875 24.8065 59.8012 24.7298C59.6149 24.6531 59.4477 24.5366 59.3111 24.3885C59.0254 24.0405 58.8818 23.5973 58.9093 23.1479V20.8783H59.8961V23.0351C59.8798 23.2979 59.9657 23.5567 60.1358 23.7576C60.2192 23.8445 60.3202 23.9125 60.432 23.9571C60.5439 24.0017 60.664 24.0218 60.7843 24.0161C60.9113 24.022 61.0381 24.0006 61.1561 23.9531C61.2741 23.9057 61.3804 23.8334 61.468 23.7412C61.6502 23.52 61.741 23.2376 61.7217 22.9517V20.8794L62.7168 20.8783ZM65.7265 20.8289C66.1809 20.8129 66.6264 20.9577 66.9847 21.2377C67.3254 21.5183 67.5501 21.915 67.6155 22.3514H66.5653C66.5313 22.1586 66.4286 21.9846 66.2763 21.8615C66.1125 21.7373 65.9107 21.6738 65.7054 21.6818C65.5808 21.6794 65.4572 21.7043 65.3434 21.7549C65.2295 21.8054 65.1281 21.8803 65.0463 21.9743C64.8543 22.2167 64.76 22.5223 64.782 22.8307C64.7597 23.139 64.8536 23.4445 65.0451 23.6871C65.127 23.7813 65.2286 23.8563 65.3427 23.9068C65.4568 23.9574 65.5806 23.9822 65.7054 23.9796C65.9107 23.9877 66.1125 23.9241 66.2763 23.7999C66.4286 23.6769 66.5313 23.5029 66.5653 23.31H67.6155C67.5501 23.7465 67.3254 24.1432 66.9847 24.4237C66.6264 24.7038 66.1809 24.8485 65.7265 24.8325C65.373 24.8391 65.0236 24.7554 64.7115 24.5893C64.4185 24.4302 64.1784 24.1889 64.0207 23.8951C63.8497 23.5669 63.7648 23.2007 63.774 22.8307C63.7651 22.4597 63.85 22.0924 64.0207 21.7629C64.177 21.468 64.4175 21.2263 64.7115 21.0686C65.0244 20.9047 65.3734 20.8223 65.7265 20.8289ZM70.7592 23.9303V24.7832H70.2376C69.8748 24.8078 69.5161 24.6945 69.2332 24.466C69.0006 24.2545 68.8843 23.9021 68.8843 23.4087V21.717H68.3415V20.8783H68.8843V19.9126H69.8781V20.8783H70.7521V21.717H69.8781V23.4228C69.8634 23.564 69.9038 23.7054 69.9909 23.8175C70.0982 23.9033 70.2348 23.9438 70.3715 23.9303H70.7592ZM75.517 20.8289C75.8734 20.8232 76.2256 20.9055 76.5426 21.0686C76.8432 21.2259 77.0917 21.4671 77.258 21.7629C77.4378 22.0895 77.5278 22.458 77.5188 22.8307C77.5281 23.2024 77.4381 23.5698 77.258 23.8951C77.0903 24.1898 76.8422 24.4306 76.5426 24.5893C76.2263 24.7546 75.8738 24.8382 75.517 24.8325C75.1598 24.8384 74.8068 24.7548 74.4902 24.5893C74.1911 24.4304 73.9433 24.1896 73.776 23.8951C73.5959 23.5698 73.5059 23.2024 73.5152 22.8307C73.5062 22.458 73.5962 22.0895 73.776 21.7629C73.942 21.4673 74.1901 21.2261 74.4902 21.0686C74.8075 20.9053 75.1602 20.823 75.517 20.8289ZM75.517 21.6889C75.3857 21.6864 75.2553 21.7112 75.134 21.7615C75.0127 21.8118 74.9031 21.8867 74.8121 21.9814C74.7099 22.0966 74.6317 22.2311 74.5821 22.3769C74.5325 22.5228 74.5124 22.677 74.5231 22.8307C74.5126 22.9842 74.5327 23.1383 74.5823 23.2839C74.632 23.4295 74.7101 23.5638 74.8121 23.6789C74.9031 23.7736 75.0127 23.8484 75.134 23.8988C75.2553 23.9491 75.3857 23.9738 75.517 23.9714C75.6483 23.9738 75.7787 23.9491 75.9 23.8988C76.0213 23.8484 76.1308 23.7736 76.2219 23.6789C76.3239 23.5638 76.402 23.4295 76.4516 23.2839C76.5013 23.1383 76.5214 22.9842 76.5108 22.8307C76.5215 22.677 76.5015 22.5228 76.4519 22.3769C76.4023 22.2311 76.3241 22.0966 76.2219 21.9814C76.1308 21.8867 76.0213 21.8118 75.9 21.7615C75.7787 21.7112 75.6483 21.6864 75.517 21.6889ZM80.5074 20.2016C80.2943 20.1642 80.0749 20.2096 79.8942 20.3285C79.8281 20.4014 79.7783 20.4874 79.7479 20.581C79.7176 20.6745 79.7073 20.7734 79.718 20.8712V20.8783H80.5074V21.717H79.718V24.7832H78.7241V21.717H78.2237V20.8783H78.7241V20.7866C78.7115 20.5896 78.7404 20.392 78.809 20.2069C78.8776 20.0217 78.9844 19.853 79.1223 19.7117C79.4523 19.4381 79.8755 19.3029 80.303 19.3346C80.3923 19.3346 80.4604 19.337 80.5074 19.3417V20.2016ZM84.511 20.7584V21.8016H86.1956V22.7109H84.511V23.8175H86.4071V24.7832H83.3057V19.7998H86.4071V20.7584H84.511ZM89.6706 23.747V24.7832H89.1278C88.7394 24.8071 88.3561 24.6852 88.0529 24.4413C87.7968 24.2134 87.6688 23.8363 87.6688 23.31V21.8651H87.1401V20.8501H87.6688V19.8844H88.8741V20.8501H89.6635V21.8651H88.8741V23.3312C88.8612 23.4474 88.895 23.564 88.968 23.6554C89.0595 23.7255 89.1741 23.7582 89.2888 23.747H89.6706ZM93.1949 20.8078C93.3962 20.7987 93.5971 20.8344 93.783 20.9125C93.9689 20.9905 94.1352 21.1088 94.2698 21.2589C94.5524 21.6084 94.6948 22.0507 94.6692 22.4994V24.7832H93.4639V22.6404C93.4773 22.4156 93.4027 22.1944 93.2559 22.0237C93.1848 21.9494 93.0987 21.8912 93.0033 21.8529C92.9078 21.8146 92.8053 21.7971 92.7026 21.8016C92.5947 21.7964 92.4869 21.8145 92.3865 21.8546C92.2862 21.8948 92.1957 21.956 92.1211 22.0342C91.9672 22.2194 91.8903 22.4566 91.9061 22.6968V24.7832H90.7008V19.5672H91.9061V21.569C92.0156 21.3378 92.1909 21.1441 92.4101 21.0122C92.6475 20.8722 92.9193 20.8014 93.1949 20.8078ZM99.5527 22.7109C99.5516 22.8199 99.5398 22.9285 99.5174 23.0351H96.7896C96.7802 23.2688 96.861 23.4972 97.0152 23.673C97.1565 23.8041 97.3441 23.8738 97.5368 23.8669C97.6956 23.873 97.8519 23.8258 97.9808 23.7329C98.0956 23.6478 98.1776 23.5259 98.2134 23.3876H99.4892C99.4398 23.6596 99.3236 23.9152 99.1509 24.1312C98.9736 24.3524 98.7466 24.5287 98.4883 24.6457C98.2074 24.7735 97.9018 24.8376 97.5932 24.8337C97.2363 24.8405 96.8835 24.7568 96.5676 24.5905C96.2705 24.4295 96.0268 24.1854 95.8663 23.888C95.6912 23.5585 95.6039 23.1896 95.6125 22.8166C95.6031 22.4429 95.6892 22.0729 95.8627 21.7417C96.0229 21.4453 96.2668 21.2026 96.5641 21.0439C96.8813 20.8778 97.2352 20.7942 97.5932 20.8007C97.9509 20.7931 98.3048 20.8755 98.6223 21.0404C98.9116 21.1936 99.1503 21.4274 99.3095 21.7135C99.4758 22.0192 99.5596 22.363 99.5527 22.7109ZM98.3333 22.5276C98.3436 22.4214 98.3303 22.3141 98.2944 22.2136C98.2584 22.1131 98.2007 22.0218 98.1253 21.9461C97.9793 21.8159 97.7888 21.7465 97.5932 21.7523C97.3914 21.7454 97.1947 21.816 97.0434 21.9497C96.8882 22.1023 96.7996 22.31 96.7967 22.5276H98.3333ZM101.738 21.5902C101.883 21.3558 102.082 21.1599 102.319 21.0192C102.552 20.8794 102.819 20.8063 103.091 20.8078V22.0977H102.746C102.482 22.0815 102.22 22.1534 102.002 22.3021C101.907 22.3886 101.834 22.4961 101.788 22.6161C101.742 22.736 101.725 22.8651 101.738 22.9928V24.7832H100.532V20.8501H101.738V21.5902ZM105.382 20.8007C105.812 20.7787 106.236 20.9112 106.577 21.1743C106.876 21.4251 107.075 21.7755 107.137 22.1611H106.009C105.983 22.0126 105.903 21.8786 105.786 21.784C105.662 21.6894 105.509 21.6408 105.352 21.6466C105.242 21.6388 105.132 21.67 105.042 21.7347C105.007 21.7655 104.979 21.8041 104.96 21.8475C104.942 21.8909 104.934 21.9379 104.937 21.9849C104.937 22.0451 104.956 22.1037 104.99 22.1529C105.025 22.202 105.074 22.2394 105.13 22.2598C105.327 22.3418 105.532 22.4032 105.741 22.4431C105.992 22.4989 106.24 22.5707 106.481 22.658C106.676 22.7321 106.848 22.8547 106.982 23.014C107.131 23.2017 107.206 23.4373 107.193 23.6766C107.197 23.8906 107.133 24.1003 107.01 24.2757C106.876 24.459 106.693 24.6007 106.481 24.6845C106.222 24.7887 105.944 24.8391 105.664 24.8325C105.212 24.8552 104.764 24.7316 104.388 24.4801C104.228 24.3601 104.093 24.209 103.993 24.0358C103.892 23.8626 103.828 23.6709 103.803 23.4721H104.966C104.971 23.5486 104.993 23.6229 105.03 23.6899C105.068 23.7568 105.119 23.8149 105.181 23.8598C105.324 23.9544 105.493 24.0013 105.664 23.9937C105.775 24.0017 105.886 23.9678 105.974 23.8986C106.009 23.8672 106.036 23.8285 106.055 23.7852C106.073 23.742 106.081 23.6953 106.08 23.6484C106.082 23.5854 106.065 23.5234 106.03 23.4709C105.995 23.4184 105.945 23.3782 105.886 23.3558C105.682 23.2739 105.471 23.2109 105.255 23.1679C105.011 23.1199 104.77 23.054 104.536 22.9705C104.348 22.8997 104.18 22.782 104.05 22.6287C103.905 22.446 103.832 22.2165 103.845 21.9837C103.841 21.8195 103.875 21.6565 103.945 21.5078C104.014 21.3591 104.118 21.2288 104.247 21.1273C104.576 20.8903 104.977 20.7749 105.382 20.8007ZM109.992 20.8007C110.453 20.7854 110.905 20.9339 111.267 21.2201C111.617 21.5118 111.848 21.9219 111.916 22.3726H110.64C110.611 22.2178 110.529 22.0782 110.408 21.9778C110.28 21.8807 110.123 21.8308 109.963 21.8369C109.863 21.835 109.764 21.8567 109.673 21.9001C109.582 21.9436 109.503 22.0076 109.442 22.0871C109.292 22.2992 109.22 22.5564 109.237 22.8155C109.22 23.0749 109.292 23.3326 109.442 23.545C109.503 23.6247 109.582 23.6889 109.673 23.7326C109.763 23.7762 109.863 23.7981 109.963 23.7964C110.123 23.8024 110.28 23.7526 110.408 23.6554C110.529 23.5551 110.611 23.4154 110.64 23.2607H111.916C111.848 23.7109 111.617 24.1205 111.267 24.412C110.905 24.6986 110.453 24.8476 109.992 24.8325C109.635 24.8393 109.282 24.7557 108.966 24.5893C108.669 24.4286 108.425 24.1849 108.265 23.888C108.09 23.5585 108.002 23.1896 108.011 22.8166C108.002 22.4429 108.088 22.0729 108.261 21.7417C108.421 21.4453 108.665 21.2026 108.963 21.0439C109.28 20.8778 109.634 20.7942 109.992 20.8007ZM114.39 20.8007C114.663 20.7932 114.932 20.8641 115.165 21.0051C115.378 21.1375 115.545 21.3318 115.645 21.562V20.8501H116.843V24.7832H115.645V24.0713C115.545 24.3014 115.378 24.4957 115.165 24.6281C114.932 24.7691 114.663 24.8401 114.39 24.8325C114.082 24.8372 113.78 24.7527 113.519 24.5893C113.255 24.4177 113.045 24.1745 112.913 23.888C112.759 23.5524 112.683 23.186 112.691 22.8166C112.682 22.4461 112.758 22.0783 112.913 21.7417C113.046 21.4567 113.256 21.2148 113.519 21.0439C113.78 20.8805 114.082 20.796 114.39 20.8007ZM114.778 21.858C114.662 21.8532 114.546 21.8734 114.438 21.9172C114.331 21.961 114.234 22.0273 114.154 22.1118C113.987 22.3074 113.902 22.56 113.918 22.8166C113.902 23.0733 113.987 23.3259 114.154 23.5215C114.234 23.6059 114.331 23.6723 114.438 23.7161C114.546 23.7599 114.662 23.78 114.778 23.7752C114.894 23.7789 115.01 23.7576 115.118 23.7126C115.225 23.6676 115.322 23.6 115.401 23.5144C115.57 23.3223 115.657 23.072 115.645 22.8166C115.659 22.56 115.571 22.3081 115.401 22.1153C115.322 22.0306 115.225 21.9639 115.117 21.9195C115.01 21.8752 114.894 21.8542 114.778 21.858ZM120.522 20.8078C120.724 20.7987 120.925 20.8344 121.11 20.9125C121.296 20.9905 121.463 21.1088 121.597 21.2589C121.88 21.6084 122.022 22.0507 121.997 22.4994V24.7832H120.791V22.6404C120.805 22.4156 120.73 22.1944 120.583 22.0237C120.512 21.9494 120.426 21.8912 120.331 21.8529C120.235 21.8146 120.133 21.7971 120.03 21.8016C119.922 21.7964 119.814 21.8145 119.714 21.8546C119.614 21.8948 119.523 21.956 119.448 22.0342C119.295 22.2194 119.218 22.4566 119.234 22.6968V24.7832H118.027V20.8501H119.232V21.569C119.342 21.3378 119.517 21.1441 119.736 21.0122C119.974 20.872 120.246 20.8012 120.522 20.8078Z" fill="white"/>
<path d="M40.3175 9.2276C40.9992 9.3505 41.6144 9.71359 42.0514 10.2511C42.4844 10.7832 42.7151 11.4513 42.7027 12.1373C42.7238 12.5835 42.6444 13.0289 42.4701 13.4403C42.2959 13.8517 42.0314 14.2187 41.6962 14.514C41.0252 15.0948 40.0525 15.3852 38.7781 15.3852H33.6523V3.44211H38.6766C39.8827 3.44211 40.8103 3.70714 41.4594 4.2372C42.1085 4.76725 42.4327 5.51127 42.4321 6.46925C42.46 7.12815 42.2532 7.77559 41.8484 8.29624C41.4583 8.77106 40.9185 9.09942 40.3175 9.2276ZM36.0376 8.44943H38.1851C38.6722 8.48396 39.1556 8.34294 39.5478 8.05189C39.7062 7.9088 39.8303 7.73181 39.9109 7.53411C39.9914 7.33641 40.0263 7.12308 40.013 6.91002C40.026 6.69636 39.9918 6.48246 39.9129 6.2835C39.8339 6.08453 39.7122 5.90538 39.5562 5.75875C39.2517 5.48808 38.7837 5.35275 38.1522 5.35275H36.0376V8.44943ZM38.3044 13.4398C38.8227 13.4739 39.3368 13.3275 39.7592 13.0254C39.9317 12.8768 40.0672 12.6902 40.1553 12.4803C40.2434 12.2704 40.2815 12.043 40.2667 11.8158C40.2801 11.5855 40.2404 11.3552 40.1508 11.1426C40.0612 10.9299 39.924 10.7407 39.7498 10.5894C39.3283 10.2773 38.81 10.1245 38.2866 10.158H36.0376V13.4398H38.3044ZM47.6085 5.89502C48.7476 5.89502 49.6611 6.18261 50.349 6.75777C51.0429 7.343 51.4999 8.16082 51.6347 9.05843H49.4026C49.33 8.63831 49.115 8.256 48.7936 7.97577C48.4455 7.69395 48.0062 7.5495 47.5587 7.56977C47.2184 7.54857 46.8817 7.65066 46.6105 7.85735C46.4987 7.95287 46.4102 8.07258 46.3515 8.20741C46.2929 8.34223 46.2658 8.48863 46.2721 8.63551C46.2677 8.75343 46.2897 8.87083 46.3366 8.97913C46.3834 9.08743 46.4539 9.18389 46.5428 9.26143C46.7413 9.42935 46.9714 9.55589 47.2195 9.63359C47.4901 9.72382 47.8792 9.83095 48.3867 9.95501C48.9764 10.0776 49.556 10.2444 50.1207 10.454C50.5678 10.6296 50.9636 10.9146 51.2719 11.283C51.6125 11.7182 51.7838 12.2621 51.7541 12.8139C51.7632 13.1895 51.6827 13.5619 51.5193 13.9002C51.3558 14.2385 51.1142 14.533 50.8142 14.7593C50.1883 15.2549 49.3453 15.5027 48.2852 15.5027C47.0672 15.5027 46.0917 15.2295 45.3586 14.6832C44.9899 14.4025 44.6815 14.0503 44.4519 13.6478C44.2223 13.2452 44.0761 12.8005 44.0222 12.3403H46.306C46.3258 12.5545 46.3902 12.7623 46.4951 12.9502C46.6 13.1381 46.743 13.302 46.915 13.4314C47.3152 13.7118 47.7971 13.8516 48.2852 13.8289C48.6217 13.8522 48.9544 13.7463 49.2156 13.5329C49.3215 13.4354 49.4051 13.3161 49.4606 13.1832C49.5161 13.0503 49.5422 12.9071 49.537 12.7632C49.5413 12.6395 49.5186 12.5164 49.4703 12.4025C49.4221 12.2885 49.3496 12.1865 49.2579 12.1034C49.057 11.9259 48.8206 11.7932 48.5643 11.7143C48.288 11.6241 47.8964 11.517 47.3896 11.3929C46.8128 11.2702 46.2448 11.1092 45.6895 10.9108C45.2563 10.748 44.872 10.4773 44.573 10.1242C44.2421 9.70098 44.0767 9.17178 44.1077 8.63551C44.0979 8.25593 44.1769 7.8793 44.3385 7.53567C44.5 7.19203 44.7396 6.8909 45.0382 6.65627C45.6578 6.14877 46.5146 5.89502 47.6085 5.89502ZM57.7416 5.89502C58.8322 5.85662 59.9015 6.20405 60.7612 6.87619C61.5788 7.54949 62.1181 8.50162 62.2752 9.54901H59.7537C59.6719 9.08656 59.4255 8.66932 59.0602 8.37425C58.6671 8.07611 58.1828 7.92364 57.6899 7.94287C57.391 7.93709 57.0944 7.99696 56.8211 8.11826C56.5478 8.23955 56.3045 8.41933 56.1082 8.64491C55.6853 9.11294 55.4738 9.79806 55.4738 10.7003C55.4738 11.6025 55.6853 12.2876 56.1082 12.7556C56.3045 12.9812 56.5478 13.161 56.8211 13.2823C57.0944 13.4036 57.391 13.4635 57.6899 13.4577C58.1828 13.4769 58.6671 13.3244 59.0602 13.0263C59.4255 12.7312 59.6719 12.314 59.7537 11.8515H62.2743C62.1172 12.8989 61.5778 13.8511 60.7603 14.5244C59.9004 15.1953 58.8316 15.5417 57.7416 15.5027C56.8933 15.5188 56.0548 15.3183 55.3056 14.92C54.6023 14.5382 54.026 13.959 53.6478 13.2537C53.2373 12.4662 53.0336 11.5872 53.0557 10.6993C53.0343 9.80884 53.2379 8.92734 53.6478 8.13647C54.0228 7.42884 54.5999 6.8488 55.3056 6.47019C56.0564 6.077 56.8942 5.87919 57.7416 5.89502ZM72.1715 12.1213C72.176 12.7136 72.018 13.2957 71.7147 13.8045C71.39 14.3363 70.9206 14.7646 70.3614 15.0394C69.6818 15.367 68.9332 15.526 68.1791 15.5027C67.4019 15.516 66.6303 15.3692 65.9123 15.0713C65.2779 14.8076 64.7261 14.3781 64.3146 13.828C63.9099 13.2748 63.6722 12.6174 63.6295 11.9333H66.167C66.2112 12.3931 66.4182 12.8221 66.7506 13.1429C66.929 13.3072 67.1382 13.4344 67.3662 13.5172C67.5942 13.6 67.8363 13.6366 68.0786 13.625C68.2859 13.6389 68.4938 13.6108 68.69 13.5425C68.8862 13.4742 69.0666 13.367 69.2205 13.2274C69.3529 13.0929 69.4565 12.9327 69.5249 12.7567C69.5932 12.5808 69.6249 12.3927 69.618 12.204C69.6305 11.8672 69.5158 11.538 69.2966 11.282C69.071 11.0314 68.7941 10.8323 68.4846 10.6984C68.1575 10.5518 67.7064 10.3826 67.1313 10.1909C66.505 9.99084 65.8943 9.74488 65.3043 9.45503C64.8219 9.20502 64.407 8.84233 64.0947 8.39774C63.741 7.86273 63.5663 7.22927 63.5957 6.5886C63.5761 6.12529 63.6662 5.66391 63.8588 5.24205C64.0513 4.82019 64.3409 4.4498 64.7037 4.16107C65.4424 3.56899 66.4208 3.27295 67.6388 3.27295C68.9019 3.27295 69.9084 3.57745 70.6584 4.18645C71.0267 4.48309 71.3301 4.85235 71.5497 5.27127C71.7693 5.69018 71.9003 6.14978 71.9346 6.6215H69.3633C69.3087 6.21787 69.118 5.84493 68.8229 5.56421C68.4922 5.27423 68.061 5.12544 67.6218 5.14975C67.2362 5.13162 66.8572 5.25494 66.5561 5.49654C66.4169 5.62305 66.308 5.77935 66.2375 5.95378C66.167 6.12822 66.1368 6.3163 66.1492 6.50402C66.1383 6.82375 66.2503 7.13549 66.4621 7.37523C66.6853 7.61687 66.956 7.8098 67.2572 7.94193C67.6851 8.1288 68.1228 8.29256 68.5682 8.43252C69.2055 8.64995 69.8296 8.90412 70.4375 9.19376C70.9289 9.44102 71.3506 9.80742 71.664 10.2595C72.0245 10.8107 72.2021 11.4615 72.1715 12.1194V12.1213ZM78.143 5.89502C79.2337 5.85662 80.3029 6.20405 81.1626 6.87619C81.9802 7.54949 82.5195 8.50162 82.6767 9.54901H80.1561C80.0742 9.08656 79.8279 8.66932 79.4625 8.37425C79.0695 8.07611 78.5852 7.92364 78.0923 7.94287C77.7933 7.93709 77.4968 7.99696 77.2235 8.11826C76.9502 8.23955 76.7068 8.41933 76.5106 8.64491C76.0877 9.11294 75.8762 9.79806 75.8762 10.7003C75.8762 11.6025 76.0877 12.2876 76.5106 12.7556C76.7068 12.9812 76.9502 13.161 77.2235 13.2823C77.4968 13.4036 77.7933 13.4635 78.0923 13.4577C78.5852 13.4769 79.0695 13.3244 79.4625 13.0263C79.8279 12.7312 80.0742 12.314 80.1561 11.8515H82.6767C82.5191 12.8983 81.9798 13.8497 81.1626 14.5225C80.3028 15.1943 79.2335 15.5414 78.143 15.5027C77.2947 15.5188 76.4563 15.3183 75.707 14.92C75.0037 14.5382 74.4275 13.959 74.0492 13.2537C73.6387 12.4662 73.435 11.5872 73.4571 10.6993C73.4357 9.80884 73.6394 8.92734 74.0492 8.13647C74.4242 7.42884 75.0013 6.8488 75.707 6.47019C76.4579 6.077 77.2956 5.87919 78.143 5.89502ZM88.0392 5.89502C88.7564 5.87476 89.4633 6.06915 90.0692 6.45327C90.6222 6.81171 91.0437 7.34009 91.2703 7.95885V6.01344H93.6386V15.3852H91.2703V13.4229C91.0424 14.0432 90.6214 14.5739 90.0692 14.937C89.4651 15.326 88.7575 15.5232 88.0392 15.5027C87.289 15.5134 86.5508 15.3142 85.9078 14.9276C85.2622 14.5286 84.7477 13.9493 84.4275 13.2613C84.0562 12.459 83.8739 11.5822 83.8947 10.6984C83.8739 9.8146 84.0562 8.93781 84.4275 8.13553C84.7477 7.44748 85.2622 6.86822 85.9078 6.46925C86.5509 6.08297 87.2891 5.88409 88.0392 5.89502ZM88.7836 7.97577C88.45 7.96179 88.1173 8.01958 87.8079 8.14523C87.4986 8.27088 87.2198 8.46147 86.9904 8.70412C86.5393 9.18969 86.3138 9.85539 86.3138 10.7012C86.3138 11.5471 86.5393 12.2096 86.9904 12.6889C87.2212 12.9291 87.5004 13.1175 87.8096 13.2415C88.1188 13.3654 88.4508 13.4222 88.7836 13.4079C89.1163 13.4181 89.4474 13.3578 89.7551 13.231C90.0629 13.1042 90.3403 12.9137 90.5692 12.672C91.055 12.134 91.3075 11.4252 91.2713 10.7012C91.3094 9.97187 91.057 9.25711 90.5692 8.71352C90.3405 8.47153 90.0631 8.28068 89.7554 8.15353C89.4476 8.02638 89.1164 7.9658 88.7836 7.97577ZM101.386 5.87811C101.869 5.85647 102.351 5.94065 102.798 6.12474C103.246 6.30883 103.647 6.58839 103.975 6.94385C104.617 7.65435 104.938 8.65243 104.938 9.93809V15.3852H102.57V10.2088C102.57 9.46443 102.378 8.88644 101.995 8.47481C101.791 8.26554 101.546 8.10217 101.274 7.99567C101.003 7.88917 100.712 7.84201 100.42 7.85735C100.118 7.8441 99.8166 7.89617 99.5363 8.01003C99.2561 8.12388 99.0037 8.29684 98.7963 8.5171C98.3903 8.95693 98.1873 9.58848 98.1873 10.4118V15.3852H95.804V6.01344H98.1892V7.89024C98.4237 7.27514 98.8549 6.75476 99.4157 6.41004C100.009 6.04851 100.693 5.86396 101.387 5.87811H101.386Z" fill="white"/>
</svg>
